<svg xmlns="http://www.w3.org/2000/svg" viewBox="0 0 64 64">
  <rect width="64" height="64" rx="15" fill="#fffdf7"/>
  <path d="M31 51V26" stroke="#173324" stroke-width="6" stroke-linecap="round"/>
  <path d="M31 27C19 25 13 18 11 10c10 0 17 4 20 11M32 27c12-2 19-9 22-17-10 0-18 4-22 11M31 30c-9 1-15 5-19 11 8 0 14-2 19-7M32 30c9 1 16 5 20 11-8 0-15-2-20-7" fill="none" stroke="#517b58" stroke-width="5" stroke-linecap="round" stroke-linejoin="round"/>
  <path d="M12 52c13-10 26-12 40-7" fill="none" stroke="#d2aa61" stroke-width="5" stroke-linecap="round"/>
</svg>
