<svg xmlns="http://www.w3.org/2000/svg" viewBox="0 0 360 96" role="img" aria-labelledby="title desc">
  <title id="title">شعار دليل حديقة الملك فهد المركزية</title>
  <desc id="desc">نخلة ومسار منحني يرمزان إلى المساحات الخضراء ومسارات الحديقة</desc>
  <g fill="none" stroke-linecap="round" stroke-linejoin="round">
    <path d="M50 73c21-22 48-28 72-18" stroke="#d2aa61" stroke-width="8"/>
    <path d="M79 67V36" stroke="#173324" stroke-width="7"/>
    <path d="M79 37c-17-2-27-11-31-22 15 0 26 5 31 15" stroke="#517b58" stroke-width="7"/>
    <path d="M80 37c17-2 28-11 33-22-15 0-27 5-33 15" stroke="#31563a" stroke-width="7"/>
    <path d="M79 41c-12 1-21 7-27 16 11 0 20-3 27-10" stroke="#31563a" stroke-width="7"/>
    <path d="M80 41c13 1 22 7 29 16-12 0-21-3-29-10" stroke="#517b58" stroke-width="7"/>
  </g>
  <text x="340" y="42" text-anchor="end" font-family="Tahoma,Arial,sans-serif" font-size="25" font-weight="700" fill="#173324">حديقة الملك فهد المركزية</text>
  <text x="340" y="69" text-anchor="end" font-family="Tahoma,Arial,sans-serif" font-size="15" font-weight="700" fill="#aa7d35">دليل الزائر · المدينة المنورة</text>
</svg>
